<svg width="16" height="16" viewBox="0 0 16 16" fill="none" xmlns="http://www.w3.org/2000/svg">
<path d="M11.7996 11.3993C11.7996 11.6202 11.6205 11.7993 11.3996 11.7993H11.0004C10.7795 11.7993 10.6004 11.6202 10.6004 11.3993V7.21227C10.6004 6.85591 10.1695 6.67744 9.91756 6.92942L5.40668 11.4403C5.25047 11.5965 4.99721 11.5965 4.841 11.4403L4.55903 11.1583C4.40282 11.0021 4.40282 10.7489 4.55903 10.5926L9.0699 6.08177C9.32189 5.82978 9.14342 5.39893 8.78706 5.39893H4.60001C4.3791 5.39893 4.20001 5.21984 4.20001 4.99893V4.59971C4.20001 4.37879 4.3791 4.19971 4.60001 4.19971H11.3996C11.6205 4.19971 11.7996 4.37879 11.7996 4.59971V11.3993Z" fill="white"/>
</svg>
